<svg xmlns="http://www.w3.org/2000/svg" xmlns:xlink="http://www.w3.org/1999/xlink" width="182.7" height="57.646" viewBox="0 0 182.7 57.646">
  <defs>
    <linearGradient id="linear-gradient" y1="0.5" x2="1" y2="0.5" gradientUnits="objectBoundingBox">
      <stop offset="0.001" stop-color="#0041c3"/>
      <stop offset="0.24" stop-color="#0035b3"/>
      <stop offset="0.703" stop-color="#00168a"/>
      <stop offset="0.999" stop-color="#00006d"/>
    </linearGradient>
  </defs>
  <g id="logo" transform="translate(-305.779 -306.702)">
    <g id="グループ_129" data-name="グループ 129" transform="translate(426.309 309.215)">
      <path id="パス_58" data-name="パス 58" d="M797.62,326.261a4.119,4.119,0,0,0-3.959,4.168v3.331a.319.319,0,0,0,.319.319h1.593a.319.319,0,0,0,.319-.319v-3.4a1.844,1.844,0,0,1,1.432-1.835,1.8,1.8,0,0,1,2.156,1.758v3.476a.319.319,0,0,0,.318.319h1.592a.318.318,0,0,0,.319-.319v-3.476A4.024,4.024,0,0,0,797.62,326.261Z" transform="translate(-754.983 -322.391)" fill="#212121"/>
      <path id="パス_59" data-name="パス 59" d="M679.95,314.4a.318.318,0,0,0-.318.318v7.625h0a1.793,1.793,0,0,1-2.852,1.4.318.318,0,0,0-.415.028l-1.134,1.134a.321.321,0,0,0,.021.473,4.022,4.022,0,0,0,6.609-3.031h0v-7.625a.318.318,0,0,0-.318-.318Z" transform="translate(-675.135 -314.403)" fill="#212121"/>
      <path id="パス_60" data-name="パス 60" d="M737.063,326.26a2.987,2.987,0,0,0-2.112.822v-.276a.318.318,0,0,0-.318-.318h-1.275a.319.319,0,0,0-.319.318v11a.319.319,0,0,0,.319.319h1.275a.318.318,0,0,0,.318-.319v-4.1a4,4,0,0,0,2.634.57,4.024,4.024,0,0,0-.522-8.014Zm.411,5.772a1.8,1.8,0,0,1-2.159-2.159,1.8,1.8,0,1,1,2.159,2.159Z" transform="translate(-714.144 -322.391)" fill="#212121"/>
      <path id="パス_61" data-name="パス 61" d="M708,326.488a.318.318,0,0,0-.319.318v.265a3.076,3.076,0,0,0-2.112-.811,4.024,4.024,0,0,0,0,8.047,2.973,2.973,0,0,0,2.114-.782v.233a.318.318,0,0,0,.319.32h1.273a.318.318,0,0,0,.318-.318v-6.953a.318.318,0,0,0-.318-.318Zm-2.021,5.544a1.8,1.8,0,0,1-2.159-2.159,1.779,1.779,0,0,1,1.338-1.338,1.8,1.8,0,0,1,2.159,2.159A1.78,1.78,0,0,1,705.981,332.032Z" transform="translate(-692.928 -322.391)" fill="#212121"/>
      <path id="パス_62" data-name="パス 62" d="M768.623,326.488a.319.319,0,0,0-.319.318v.265a3.076,3.076,0,0,0-2.112-.811,4.024,4.024,0,0,0,0,8.047,2.972,2.972,0,0,0,2.114-.782v.233a.318.318,0,0,0,.318.32H769.9a.318.318,0,0,0,.318-.318v-6.953a.318.318,0,0,0-.318-.318Zm-2.021,5.544a1.8,1.8,0,0,1-2.159-2.159,1.779,1.779,0,0,1,1.338-1.338,1.8,1.8,0,0,1,2.159,2.159A1.78,1.78,0,0,1,766.6,332.032Z" transform="translate(-733.767 -322.391)" fill="#212121"/>
    </g>
    <g id="グループ_130" data-name="グループ 130" transform="translate(426.309 329.48)">
      <rect id="長方形_742" data-name="長方形 742" width="2.23" height="11.687" rx="0.976" transform="translate(35.527)" fill="#212121"/>
      <path id="パス_63" data-name="パス 63" d="M688.746,376.724l-2.534,7.857-2.317-7.849a.319.319,0,0,0-.305-.228h-1.117a.319.319,0,0,0-.305.228l-2.317,7.849-2.534-7.857a.319.319,0,0,0-.3-.221h-1.56a.318.318,0,0,0-.3.416l3.563,11.05a.319.319,0,0,0,.3.221h1.753a.319.319,0,0,0,.308-.236l1.953-7.29,1.953,7.29a.319.319,0,0,0,.308.236h1.753a.318.318,0,0,0,.3-.221l3.563-11.05a.319.319,0,0,0-.3-.416h-1.56A.318.318,0,0,0,688.746,376.724Z" transform="translate(-675.135 -376.503)" fill="#212121"/>
      <path id="パス_64" data-name="パス 64" d="M822.47,380.39a4,4,0,0,0-2.17.408v-3.977a.319.319,0,0,0-.319-.319h-1.592a.319.319,0,0,0-.319.319v11.05a.318.318,0,0,0,.319.318h1.592a.318.318,0,0,0,.319-.318v-3.426h0c0-.017,0-.033,0-.05a1.794,1.794,0,1,1,3.588,0c0,.017,0,.033,0,.05h0v3.426a.318.318,0,0,0,.318.318H825.8a.318.318,0,0,0,.318-.318V384.53A4.116,4.116,0,0,0,822.47,380.39Z" transform="translate(-771.427 -376.503)" fill="#212121"/>
      <path id="パス_65" data-name="パス 65" d="M731.2,392.9a.217.217,0,0,0,.218-.195c.01-.105.015-.212.015-.32a4.034,4.034,0,1,0-.478,1.9.16.16,0,0,0-.113-.23l-1.662-.321a.32.32,0,0,0-.314.123,1.868,1.868,0,0,1-3.174-.952Zm-3.66-2.564a2.012,2.012,0,0,1,1.837,1.161H725.7A1.835,1.835,0,0,1,727.538,390.334Z" transform="translate(-707.639 -384.49)" fill="#212121"/>
      <path id="パス_66" data-name="パス 66" d="M801.172,385.582H799.29v-1.355a.319.319,0,0,0-.319-.319h-1.593a.319.319,0,0,0-.319.319v1.355h-1.005a.319.319,0,0,0-.319.319v1.434a.319.319,0,0,0,.319.318h1.005v5.208a.318.318,0,0,0,.319.318h1.593a.319.319,0,0,0,.319-.318v-5.208h1.883a.318.318,0,0,0,.318-.318V385.9A.318.318,0,0,0,801.172,385.582Z" transform="translate(-756.381 -381.491)" fill="#212121"/>
      <path id="パス_67" data-name="パス 67" d="M758.967,388.588a.319.319,0,0,0-.319.318v.265a3.077,3.077,0,0,0-2.113-.811,4.024,4.024,0,0,0,0,8.047,2.974,2.974,0,0,0,2.115-.782v.233a.318.318,0,0,0,.318.32h1.273a.318.318,0,0,0,.318-.318v-6.953a.318.318,0,0,0-.318-.318Zm-2.02,5.544a1.8,1.8,0,0,1-2.159-2.159,1.8,1.8,0,1,1,2.159,2.159Z" transform="translate(-727.262 -384.491)" fill="#212121"/>
    </g>
    <g id="グループ_131" data-name="グループ 131" transform="translate(426.309 348.746)">
      <path id="パス_68" data-name="パス 68" d="M741.715,448.325l-1.261,3.91-1.261-3.91a.319.319,0,0,0-.3-.221l-1.56,0a.319.319,0,0,0-.3.416l2.241,6.95a.319.319,0,0,0,.3.221h1.766a.318.318,0,0,0,.3-.221l2.241-6.949a.319.319,0,0,0-.3-.416l-1.56,0A.319.319,0,0,0,741.715,448.325Z" transform="translate(-716.82 -444.005)" fill="#212121"/>
      <rect id="長方形_743" data-name="長方形 743" width="2.23" height="7.59" rx="0.976" transform="translate(28.783 4.097)" fill="#212121"/>
      <path id="パス_69" data-name="パス 69" d="M833.735,448.535a3.938,3.938,0,0,0-2.764.31v-.418a.319.319,0,0,0-.319-.318h-1.593a.319.319,0,0,0-.318.318v4.036h0v2.913a.318.318,0,0,0,.318.318h1.593a.319.319,0,0,0,.319-.318V452.12h0c0-.006,0-.012,0-.018a1.794,1.794,0,0,1,1.794-1.794,1.739,1.739,0,0,1,.339.033.321.321,0,0,0,.363-.189l.486-1.184A.32.32,0,0,0,833.735,448.535Z" transform="translate(-778.616 -444.008)" fill="#212121"/>
      <path id="パス_70" data-name="パス 70" d="M778.573,447.25a2.532,2.532,0,0,0-2.712,2.312,1.818,1.818,0,0,0,1.118,1.913c.538.229,1.412.557,1.894.78a.6.6,0,0,1,.321.861,1,1,0,0,1-.918.58,2.465,2.465,0,0,1-1.536-.644.319.319,0,0,0-.473,0c-.232.265-.518.6-.7.805a.317.317,0,0,0,.01.426,3.645,3.645,0,0,0,2.733,1.075,2.85,2.85,0,0,0,3.118-2.514,1.92,1.92,0,0,0-.8-1.869c-.51-.345-1.977-.8-2.283-.994s-.441-.324-.441-.594.318-.581.843-.581a2.4,2.4,0,0,1,1.015.312.316.316,0,0,0,.381-.07l.644-.712a.319.319,0,0,0-.056-.477A3.728,3.728,0,0,0,778.573,447.25Z" transform="translate(-742.742 -443.43)" fill="#212121"/>
      <path id="パス_71" data-name="パス 71" d="M850.54,447.25a2.532,2.532,0,0,0-2.712,2.312,1.818,1.818,0,0,0,1.118,1.913c.538.229,1.411.557,1.894.78a.6.6,0,0,1,.32.861,1,1,0,0,1-.918.58,2.465,2.465,0,0,1-1.536-.644.319.319,0,0,0-.473,0c-.232.265-.518.6-.7.8a.318.318,0,0,0,.01.427,3.646,3.646,0,0,0,2.733,1.074,2.85,2.85,0,0,0,3.118-2.514,1.921,1.921,0,0,0-.8-1.869c-.51-.345-1.978-.8-2.284-.994s-.441-.324-.441-.594.317-.581.843-.581a2.4,2.4,0,0,1,1.015.312.316.316,0,0,0,.381-.07l.644-.712a.319.319,0,0,0-.056-.477A3.728,3.728,0,0,0,850.54,447.25Z" transform="translate(-791.225 -443.43)" fill="#212121"/>
      <path id="パス_72" data-name="パス 72" d="M682.786,447.23h1.56a.318.318,0,0,0,.3-.416l-3.563-11.05a.319.319,0,0,0-.3-.221h-1.766a.319.319,0,0,0-.3.221l-3.563,11.05a.319.319,0,0,0,.3.416h1.56a.318.318,0,0,0,.3-.221l.454-1.407h4.258l.454,1.407A.318.318,0,0,0,682.786,447.23Zm-4.347-3.7L679.9,439l1.461,4.531Z" transform="translate(-675.135 -435.543)" fill="#212121"/>
      <circle id="楕円形_55" data-name="楕円形 55" cx="1.237" cy="1.237" r="1.237" transform="translate(28.661)" fill="#212121"/>
      <path id="パス_73" data-name="パス 73" d="M714.89,435.543h-1.31a.3.3,0,0,0-.3.3v4.173a4.024,4.024,0,1,0,0,6.839v.074a.3.3,0,0,0,.3.3h1.31a.3.3,0,0,0,.3-.3V435.843A.3.3,0,0,0,714.89,435.543Zm-3.723,9.687a1.794,1.794,0,1,1,1.794-1.794A1.794,1.794,0,0,1,711.167,445.23Z" transform="translate(-696.698 -435.543)" fill="#212121"/>
      <path id="パス_74" data-name="パス 74" d="M805.961,451.938a.217.217,0,0,0,.218-.195c.009-.105.015-.212.015-.32a4.034,4.034,0,1,0-.478,1.9.16.16,0,0,0-.113-.23l-1.662-.321a.32.32,0,0,0-.314.123,1.868,1.868,0,0,1-3.174-.952Zm-3.66-2.564a2.012,2.012,0,0,1,1.837,1.161h-3.672A1.835,1.835,0,0,1,802.3,449.374Z" transform="translate(-758.005 -443.53)" fill="#212121"/>
    </g>
    <g id="グループ_133" data-name="グループ 133" transform="translate(305.779 306.702)">
      <path id="パス_75" data-name="パス 75" d="M516.392,322.064A16.488,16.488,0,0,0,499.963,306.7a16.191,16.191,0,0,0-16.487,16.01l-.007,25.625a8.212,8.212,0,0,1-14.718,4.56.363.363,0,0,0-.636.129,18.274,18.274,0,0,1-3.446,6.481.734.734,0,0,0,.075,1.032,16.452,16.452,0,0,0,26.972-12.2l-.005-25.625a7.966,7.966,0,0,1,8.252-7.775,8.238,8.238,0,0,1,8.212,7.775h.023v14.714l.006,0v24.8a.735.735,0,0,0,1.248.525l3.487-3.406,2.824-2.716a2.2,2.2,0,0,0,.676-1.588V322.064Z" transform="translate(-412.7 -306.702)" fill="#0041c3"/>
      <circle id="楕円形_56" data-name="楕円形 56" cx="4.118" cy="4.118" r="4.118" transform="translate(83.151 37.058)" fill="#0041c3"/>
      <path id="パス_76" data-name="パス 76" d="M556.165,306.7a16.353,16.353,0,0,0-8.153,2.169l-.093,13.287a8.33,8.33,0,0,1,8.247-7.222,8.238,8.238,0,0,1,8.212,7.775h.007c0-.216.016-.431.016-.648a28.688,28.688,0,0,0-4.111-14.84A16.449,16.449,0,0,0,556.165,306.7Z" transform="translate(-468.902 -306.702)" fill="url(#linear-gradient)"/>
      <g id="グループ_132" data-name="グループ 132" transform="translate(0 1.955)">
        <path id="パス_77" data-name="パス 77" d="M334.158,312.9l-6.315,6.074a2.2,2.2,0,0,0-.676,1.588v31.811h-.023a8.217,8.217,0,0,1-15.153,3.946.733.733,0,0,0-1.14-.134L306,361.038a.734.734,0,0,0-.069.965,16.438,16.438,0,0,0,13.479,6.375c8.806-.249,16-8.047,16-16.856V313.43A.735.735,0,0,0,334.158,312.9Z" transform="translate(-305.779 -312.694)" fill="#0041c3"/>
      </g>
      <path id="パス_78" data-name="パス 78" d="M327.146,434.29a8.217,8.217,0,0,1-15.153,3.946.733.733,0,0,0-1.14-.134L306,442.953a.734.734,0,0,0-.069.965,16.456,16.456,0,0,0,16.3,6.05,28.68,28.68,0,0,0,4.927-15.679Z" transform="translate(-305.781 -392.655)" fill="url(#linear-gradient)"/>
      <path id="パス_79" data-name="パス 79" d="M414.456,312.909l-6.312,6.072a2.2,2.2,0,0,0-.676,1.588v17.105l-.013-.008V352.38h-.023a8.215,8.215,0,0,1-14.8,4.456.363.363,0,0,0-.638.119,19.232,19.232,0,0,1-3.515,6.467.733.733,0,0,0,.069,1.025,16.455,16.455,0,0,0,27.142-12.527h.012V313.439A.735.735,0,0,0,414.456,312.909Z" transform="translate(-361.372 -310.745)" fill="#0041c3"/>
      <path id="パス_80" data-name="パス 80" d="M407.431,434.29a8.215,8.215,0,0,1-14.8,4.456.363.363,0,0,0-.638.119,19.231,19.231,0,0,1-3.515,6.467.733.733,0,0,0,.069,1.025,16.442,16.442,0,0,0,13.656,3.672.753.753,0,0,0,.49-.325,28.681,28.681,0,0,0,4.75-15.414Z" transform="translate(-361.372 -392.655)" fill="url(#linear-gradient)"/>
      <path id="パス_81" data-name="パス 81" d="M483.48,434.29a8.213,8.213,0,0,1-14.722,4.555.362.362,0,0,0-.636.129,18.279,18.279,0,0,1-3.445,6.483.734.734,0,0,0,.075,1.032,16.446,16.446,0,0,0,13.813,3.479,28.677,28.677,0,0,0,4.928-15.679Z" transform="translate(-412.705 -392.655)" fill="url(#linear-gradient)"/>
    </g>
  </g>
</svg>
