<svg xmlns="http://www.w3.org/2000/svg" width="659.808" height="67.248" viewBox="0 0 659.808 67.248">
  <path id="パス_257" data-name="パス 257" d="M16.7-25.992H3.312V30.744H16.7ZM44.64-1.728v-13.68H73.728V-25.992H31.68V30.744H44.64V8.5H69.7V-1.728ZM120.168,20.3l3.384,10.44h13.392l-20.52-56.736H101.952L81.432,30.744H94.824L98.208,20.3Zm-19.08-9,8.064-25.056L117.216,11.3Zm85.464,22.68c6.12-2.664,11.232-5.328,15.624-10.44,8.208-9.72,8.5-18.936,8.5-22.248,0-17.208-13.752-27.936-29.52-27.936-21.168,0-35.28,18.072-35.28,33.552,0,13.32,10.44,22.824,16.056,22.824,7.632,0,18.5-19.656,20.736-46.008C196.2-15.192,199.3-4.464,199.3,1.368c0,7.488-4.608,19.584-20.232,22.464A46.687,46.687,0,0,1,186.552,33.984Zm-15.984-48.1a62.97,62.97,0,0,1-5.544,24.768c-.792,1.872-2.16,5.112-3.888,5.112-1.512,0-4.608-4.176-4.608-9.72C156.528-.432,162.216-11.016,170.568-14.112ZM245.3-29.52c.072,4.176.072,5.472,0,12.6H223.488V-6.48h21.528c-.5,7.7-1.3,13.464-5.472,19.872-1.152,1.8-6.768,10.224-19.368,14.616a30.277,30.277,0,0,1,8.424,8.5c17.424-8.5,25.7-20.52,27.5-42.984h16.632c0,12.1-.648,19.944-1.224,23.616-1.08,6.768-2.664,7.272-5.472,7.272a39.961,39.961,0,0,1-9.288-1.08c3.312,5.04,4.392,8.136,4.968,12.384,8.5,0,16.776-.072,19.3-8.64,1.368-4.536,3.312-16.056,3.312-43.992H256.752c0-.432.216-8.28.216-9.288,1.224-.576,1.728-1.008,1.728-1.656,0-.936-1.08-1.08-1.728-1.08Zm77.688-1.224a53.641,53.641,0,0,1-3.816,9.432c-1.152.072-2.016.072-4.1.072-4.9,0-9.072-.36-11.3-.576l-.072,10.44c3.1.072,6.264.072,10.152-.072A153.536,153.536,0,0,1,299.232,7.92l10.008,5.688c3.96-6.408,9-14.472,16.488-14.472a5.223,5.223,0,0,1,5.4,3.6c-7.848,4.1-19.3,11.232-19.3,19.728,0,12.744,18.72,12.744,23.544,12.744a89.369,89.369,0,0,0,20.088-2.088,45.211,45.211,0,0,1,1.368-11.448,80.913,80.913,0,0,1-23.04,3.528c-3.672,0-11.016-.216-11.016-3.456,0-2.952,4.536-5.976,9-8.712a62.376,62.376,0,0,1-.5,8.208,32.149,32.149,0,0,1,4.176-.144c2.3,0,4.9,0,7.2.144.072-1.944.216-3.96.216-7.2,0-2.16-.072-4.392-.216-6.48a171.448,171.448,0,0,1,16.416-5.832l-4.248-11.52c-2.664,1.512-3.888,2.016-14.544,7.128a12.649,12.649,0,0,0-10.512-6.12,13.644,13.644,0,0,0-6.264,1.44c1.8-3.168,1.944-3.456,2.808-4.968,8.5-1.008,9.792-1.224,20.52-3.1V-26.064a77.471,77.471,0,0,1-14.9,3.384l1.656-3.528c.5,0,1.8-.072,1.8-1.08s-1.008-1.224-1.44-1.3Zm57.672,18h-9.288v9.792h9.288V36.36h10.872V33.624h41.328V23.76H391.536V-2.952h8.5V21.024H410.4V17.5h7.92v2.952h10.008v-23.4h10.224v-9.792H428.328V-25.272c.936-.432,1.728-.936,1.728-1.512,0-.792-.648-.864-1.368-.864l-10.368-.5v15.408H410.4V-27.5c.792-.216,1.728-.648,1.728-1.224,0-1.008-.936-1.08-1.728-1.152l-10.368-.5v17.64h-8.5V-24.48c.576-.216,1.8-.648,1.8-1.512S392.4-27,391.824-27l-11.16-.576ZM418.32,7.92H410.4V-2.952h7.92Zm70.632,26.064c6.12-2.664,11.232-5.328,15.624-10.44,8.208-9.72,8.5-18.936,8.5-22.248,0-17.208-13.752-27.936-29.52-27.936-21.168,0-35.28,18.072-35.28,33.552,0,13.32,10.44,22.824,16.056,22.824,7.632,0,18.5-19.656,20.736-46.008C498.6-15.192,501.7-4.464,501.7,1.368c0,7.488-4.608,19.584-20.232,22.464A46.687,46.687,0,0,1,488.952,33.984Zm-15.984-48.1a62.97,62.97,0,0,1-5.544,24.768c-.792,1.872-2.16,5.112-3.888,5.112-1.512,0-4.608-4.176-4.608-9.72C458.928-.432,464.616-11.016,472.968-14.112Zm88.7,29.3H576.5v2.952H587.52v-34.7H561.672V-27.072c1.08-.144,2.088-.432,2.088-1.224s-.792-.864-1.152-.864l-11.88-.648V-16.56H524.88v34.7h11.232V15.192h14.616V36.144h10.944Zm0-21.96H576.5V4.9H561.672ZM550.728,4.9H536.112V-6.768h14.616ZM606.312-28.44C603.72-16.992,601.7-8.064,601.7,4.968a75.9,75.9,0,0,0,5.112,28.8l10.224-2.736c-.36-5.472,2.952-13.824,4.752-17.208a21.1,21.1,0,0,1-5.544-5.9c-.864,1.44-2.592,4.608-3.024,5.4a25.055,25.055,0,0,1-.5-5.76c0-15.12,2.52-23.328,4.68-29.736.5-.072,1.944-.216,1.944-.864,0-.5-.576-.72-1.944-1.224ZM627.7-10.368c2.3.144,5.112.36,9.36.36a107.211,107.211,0,0,0,22.176-2.16,108.37,108.37,0,0,1-1.008-10.944c-2.736.648-9.288,2.3-21.168,2.3-4.32,0-7.2-.216-9.36-.36Zm-.5,18.216a26.671,26.671,0,0,0-2.376,10.584c0,8.784,8.28,10.656,19.008,10.656a152.8,152.8,0,0,0,18.216-.936,47.851,47.851,0,0,1,1.08-11.736,73.319,73.319,0,0,1-17.784,1.944c-8.28,0-10.008-.5-10.008-3.672a19.553,19.553,0,0,1,1.08-5.112Z" transform="translate(-3.312 30.744)" fill="#2b2b2b"/>
</svg>
